<mxfile host="app.diagrams.net" modified="2024-09-04T12:05:09.050Z" agent="Mozilla/5.0 (Windows NT 10.0; Win64; x64) AppleWebKit/537.36 (KHTML, like Gecko) Chrome/128.0.0.0 Safari/537.36" etag="p4TNkP6O7y2uIyW6Jr_J" version="24.6.4" type="device" pages="6">
  <diagram id="Fph211Mz46HiGQqzQfK_" name="Plan de site">
    <mxGraphModel dx="1603" dy="1580" grid="1" gridSize="10" guides="1" tooltips="1" connect="1" arrows="1" fold="1" page="1" pageScale="1" pageWidth="850" pageHeight="1100" math="0" shadow="0">
      <root>
        <mxCell id="0" />
        <mxCell id="1" parent="0" />
        <mxCell id="jYjblTIvRzerhubm99wv-18" value="Connexion" style="rounded=1;fillColor=#23445D;gradientColor=none;strokeColor=none;fontColor=#FFFFFF;fontStyle=1;fontFamily=Tahoma;fontSize=14" parent="1" vertex="1">
          <mxGeometry x="750" y="-210.00000000000003" width="190" height="80" as="geometry" />
        </mxCell>
        <mxCell id="jYjblTIvRzerhubm99wv-19" value="" style="rounded=1;fillColor=#23445D;gradientColor=none;strokeColor=none;fontColor=#FFFFFF;fontStyle=1;fontFamily=Tahoma;fontSize=14" parent="1" vertex="1">
          <mxGeometry x="1334.9999999999998" y="179.99999999999997" width="190" height="80" as="geometry" />
        </mxCell>
        <mxCell id="jYjblTIvRzerhubm99wv-21" value="" style="rounded=1;fillColor=#23445D;gradientColor=none;strokeColor=none;fontColor=#FFFFFF;fontStyle=1;fontFamily=Tahoma;fontSize=14" parent="1" vertex="1">
          <mxGeometry x="920" y="179.99999999999997" width="190" height="80" as="geometry" />
        </mxCell>
        <mxCell id="jYjblTIvRzerhubm99wv-22" value="Mes documents" style="rounded=1;fillColor=#23445D;gradientColor=none;strokeColor=none;fontColor=#FFFFFF;fontStyle=1;fontFamily=Tahoma;fontSize=14" parent="1" vertex="1">
          <mxGeometry x="534.9999999999999" y="179.99999999999997" width="190" height="80" as="geometry" />
        </mxCell>
        <mxCell id="jYjblTIvRzerhubm99wv-23" value="Formulaire&#xa; connexion" style="rounded=1;fillColor=#23445D;gradientColor=none;strokeColor=none;fontColor=#FFFFFF;fontStyle=1;fontFamily=Tahoma;fontSize=14" parent="1" vertex="1">
          <mxGeometry x="80" y="179.99999999999997" width="190" height="80" as="geometry" />
        </mxCell>
        <mxCell id="jYjblTIvRzerhubm99wv-25" value="Mot de passe &#xa;oublié" style="rounded=1;fillColor=#23445D;gradientColor=none;strokeColor=none;fontColor=#FFFFFF;fontStyle=1;fontFamily=Tahoma;fontSize=14" parent="1" vertex="1">
          <mxGeometry x="110" y="310" width="130" height="60" as="geometry" />
        </mxCell>
        <mxCell id="jYjblTIvRzerhubm99wv-27" value="Formulaire&#xa;d&#39;inscription" style="rounded=1;fillColor=#23445D;gradientColor=none;strokeColor=none;fontColor=#FFFFFF;fontStyle=1;fontFamily=Tahoma;fontSize=14" parent="1" vertex="1">
          <mxGeometry x="-70" y="310" width="130" height="60" as="geometry" />
        </mxCell>
        <mxCell id="jYjblTIvRzerhubm99wv-32" value="Devoirs" style="rounded=1;fillColor=#23445D;gradientColor=none;strokeColor=none;fontColor=#FFFFFF;fontStyle=1;fontFamily=Tahoma;fontSize=14" parent="1" vertex="1">
          <mxGeometry x="460" y="390" width="130" height="60" as="geometry" />
        </mxCell>
        <mxCell id="jYjblTIvRzerhubm99wv-110" value="" style="edgeStyle=orthogonalEdgeStyle;rounded=0;orthogonalLoop=1;jettySize=auto;html=1;" parent="1" source="jYjblTIvRzerhubm99wv-36" target="jYjblTIvRzerhubm99wv-22" edge="1">
          <mxGeometry relative="1" as="geometry" />
        </mxCell>
        <mxCell id="jYjblTIvRzerhubm99wv-36" value="Liste de&#xa;documents" style="rounded=1;fillColor=#23445D;gradientColor=none;strokeColor=none;fontColor=#FFFFFF;fontStyle=1;fontFamily=Tahoma;fontSize=14" parent="1" vertex="1">
          <mxGeometry x="565" y="300" width="130" height="60" as="geometry" />
        </mxCell>
        <mxCell id="jYjblTIvRzerhubm99wv-37" value="Cours" style="rounded=1;fillColor=#23445D;gradientColor=none;strokeColor=none;fontColor=#FFFFFF;fontStyle=1;fontFamily=Tahoma;fontSize=14" parent="1" vertex="1">
          <mxGeometry x="670" y="390" width="130" height="60" as="geometry" />
        </mxCell>
        <mxCell id="jYjblTIvRzerhubm99wv-47" value="" style="rounded=1;fillColor=#23445D;gradientColor=none;strokeColor=none;fontColor=#FFFFFF;fontStyle=1;fontFamily=Tahoma;fontSize=14" parent="1" vertex="1">
          <mxGeometry x="950" y="300" width="130" height="60" as="geometry" />
        </mxCell>
        <mxCell id="jYjblTIvRzerhubm99wv-48" value="" style="rounded=1;fillColor=#23445D;gradientColor=none;strokeColor=none;fontColor=#FFFFFF;fontStyle=1;fontFamily=Tahoma;fontSize=14" parent="1" vertex="1">
          <mxGeometry x="950" y="390" width="130" height="60" as="geometry" />
        </mxCell>
        <mxCell id="jYjblTIvRzerhubm99wv-50" value="" style="rounded=1;fillColor=#23445D;gradientColor=none;strokeColor=none;fontColor=#FFFFFF;fontStyle=1;fontFamily=Tahoma;fontSize=14" parent="1" vertex="1">
          <mxGeometry x="1190" y="300" width="130" height="60" as="geometry" />
        </mxCell>
        <mxCell id="jYjblTIvRzerhubm99wv-51" value="" style="rounded=1;fillColor=#23445D;gradientColor=none;strokeColor=none;fontColor=#FFFFFF;fontStyle=1;fontFamily=Tahoma;fontSize=14" parent="1" vertex="1">
          <mxGeometry x="1190" y="390" width="130" height="60" as="geometry" />
        </mxCell>
        <mxCell id="jYjblTIvRzerhubm99wv-54" value="" style="rounded=1;fillColor=#23445D;gradientColor=none;strokeColor=none;fontColor=#FFFFFF;fontStyle=1;fontFamily=Tahoma;fontSize=14" parent="1" vertex="1">
          <mxGeometry x="1365" y="300" width="130" height="60" as="geometry" />
        </mxCell>
        <mxCell id="jYjblTIvRzerhubm99wv-55" value="" style="rounded=1;fillColor=#23445D;gradientColor=none;strokeColor=none;fontColor=#FFFFFF;fontStyle=1;fontFamily=Tahoma;fontSize=14" parent="1" vertex="1">
          <mxGeometry x="1365" y="390" width="130" height="60" as="geometry" />
        </mxCell>
        <mxCell id="jYjblTIvRzerhubm99wv-58" value="" style="rounded=1;fillColor=#23445D;gradientColor=none;strokeColor=none;fontColor=#FFFFFF;fontStyle=1;fontFamily=Tahoma;fontSize=14" parent="1" vertex="1">
          <mxGeometry x="1540" y="300" width="130" height="60" as="geometry" />
        </mxCell>
        <mxCell id="jYjblTIvRzerhubm99wv-59" value="" style="rounded=1;fillColor=#23445D;gradientColor=none;strokeColor=none;fontColor=#FFFFFF;fontStyle=1;fontFamily=Tahoma;fontSize=14" parent="1" vertex="1">
          <mxGeometry x="1540" y="390" width="130" height="60" as="geometry" />
        </mxCell>
        <mxCell id="jYjblTIvRzerhubm99wv-67" value="" style="edgeStyle=elbowEdgeStyle;elbow=vertical;strokeWidth=2;rounded=0" parent="1" source="jYjblTIvRzerhubm99wv-23" edge="1">
          <mxGeometry x="-23" y="135.5" width="100" height="100" as="geometry">
            <mxPoint x="-50" y="79.99999999999997" as="sourcePoint" />
            <mxPoint y="300" as="targetPoint" />
            <Array as="points">
              <mxPoint x="180" y="280" />
            </Array>
          </mxGeometry>
        </mxCell>
        <mxCell id="jYjblTIvRzerhubm99wv-80" value="" style="edgeStyle=elbowEdgeStyle;elbow=horizontal;strokeWidth=2;rounded=0;exitX=0.5;exitY=1;exitDx=0;exitDy=0;" parent="1" source="jYjblTIvRzerhubm99wv-36" target="jYjblTIvRzerhubm99wv-37" edge="1">
          <mxGeometry x="-23" y="135.5" width="100" height="100" as="geometry">
            <mxPoint x="-50" y="270" as="sourcePoint" />
            <mxPoint x="50" y="169.99999999999997" as="targetPoint" />
            <Array as="points">
              <mxPoint x="630" y="420" />
            </Array>
          </mxGeometry>
        </mxCell>
        <mxCell id="jYjblTIvRzerhubm99wv-86" value="" style="edgeStyle=elbowEdgeStyle;elbow=horizontal;strokeWidth=2;rounded=0" parent="1" source="jYjblTIvRzerhubm99wv-47" target="jYjblTIvRzerhubm99wv-48" edge="1">
          <mxGeometry x="-23" y="135.5" width="100" height="100" as="geometry">
            <mxPoint x="-50" y="79.99999999999997" as="sourcePoint" />
            <mxPoint x="50" y="-20.00000000000003" as="targetPoint" />
            <Array as="points">
              <mxPoint x="930" y="380" />
            </Array>
          </mxGeometry>
        </mxCell>
        <mxCell id="jYjblTIvRzerhubm99wv-88" value="" style="edgeStyle=elbowEdgeStyle;elbow=horizontal;strokeWidth=2;rounded=0" parent="1" source="jYjblTIvRzerhubm99wv-50" target="jYjblTIvRzerhubm99wv-51" edge="1">
          <mxGeometry x="-23" y="135.5" width="100" height="100" as="geometry">
            <mxPoint x="-50" y="79.99999999999997" as="sourcePoint" />
            <mxPoint x="50" y="-20.00000000000003" as="targetPoint" />
            <Array as="points">
              <mxPoint x="1170" y="390" />
            </Array>
          </mxGeometry>
        </mxCell>
        <mxCell id="jYjblTIvRzerhubm99wv-91" value="" style="edgeStyle=elbowEdgeStyle;elbow=horizontal;strokeWidth=2;rounded=0" parent="1" source="jYjblTIvRzerhubm99wv-54" target="jYjblTIvRzerhubm99wv-55" edge="1">
          <mxGeometry x="-23" y="135.5" width="100" height="100" as="geometry">
            <mxPoint x="-50" y="79.99999999999997" as="sourcePoint" />
            <mxPoint x="50" y="-20.00000000000003" as="targetPoint" />
            <Array as="points">
              <mxPoint x="1340" y="380" />
            </Array>
          </mxGeometry>
        </mxCell>
        <mxCell id="jYjblTIvRzerhubm99wv-94" value="" style="edgeStyle=elbowEdgeStyle;elbow=horizontal;strokeWidth=2;rounded=0" parent="1" source="jYjblTIvRzerhubm99wv-58" target="jYjblTIvRzerhubm99wv-59" edge="1">
          <mxGeometry x="-23" y="135.5" width="100" height="100" as="geometry">
            <mxPoint x="-50" y="79.99999999999997" as="sourcePoint" />
            <mxPoint x="50" y="-20.00000000000003" as="targetPoint" />
            <Array as="points">
              <mxPoint x="1520" y="380" />
            </Array>
          </mxGeometry>
        </mxCell>
        <mxCell id="jYjblTIvRzerhubm99wv-101" value="" style="edgeStyle=elbowEdgeStyle;elbow=vertical;strokeWidth=2;rounded=0" parent="1" source="jYjblTIvRzerhubm99wv-22" target="jYjblTIvRzerhubm99wv-36" edge="1">
          <mxGeometry x="-23" y="135.5" width="100" height="100" as="geometry">
            <mxPoint x="-50" y="79.99999999999997" as="sourcePoint" />
            <mxPoint x="50" y="-20.00000000000003" as="targetPoint" />
          </mxGeometry>
        </mxCell>
        <mxCell id="jYjblTIvRzerhubm99wv-103" value="" style="edgeStyle=elbowEdgeStyle;elbow=vertical;strokeWidth=2;rounded=0" parent="1" source="jYjblTIvRzerhubm99wv-21" target="jYjblTIvRzerhubm99wv-47" edge="1">
          <mxGeometry x="-23" y="135.5" width="100" height="100" as="geometry">
            <mxPoint x="-50" y="79.99999999999997" as="sourcePoint" />
            <mxPoint x="50" y="-20.00000000000003" as="targetPoint" />
          </mxGeometry>
        </mxCell>
        <mxCell id="jYjblTIvRzerhubm99wv-104" value="" style="edgeStyle=elbowEdgeStyle;elbow=vertical;strokeWidth=2;rounded=0" parent="1" source="jYjblTIvRzerhubm99wv-19" target="jYjblTIvRzerhubm99wv-54" edge="1">
          <mxGeometry x="-23" y="135.5" width="100" height="100" as="geometry">
            <mxPoint x="-50" y="79.99999999999997" as="sourcePoint" />
            <mxPoint x="50" y="-20.00000000000003" as="targetPoint" />
          </mxGeometry>
        </mxCell>
        <mxCell id="jYjblTIvRzerhubm99wv-105" value="" style="edgeStyle=elbowEdgeStyle;elbow=vertical;strokeWidth=2;rounded=0" parent="1" source="jYjblTIvRzerhubm99wv-19" target="jYjblTIvRzerhubm99wv-50" edge="1">
          <mxGeometry x="-23" y="135.5" width="100" height="100" as="geometry">
            <mxPoint x="-50" y="79.99999999999997" as="sourcePoint" />
            <mxPoint x="50" y="-20.00000000000003" as="targetPoint" />
          </mxGeometry>
        </mxCell>
        <mxCell id="jYjblTIvRzerhubm99wv-106" value="" style="edgeStyle=elbowEdgeStyle;elbow=vertical;strokeWidth=2;rounded=0" parent="1" source="jYjblTIvRzerhubm99wv-19" target="jYjblTIvRzerhubm99wv-58" edge="1">
          <mxGeometry x="-23" y="135.5" width="100" height="100" as="geometry">
            <mxPoint x="-50" y="79.99999999999997" as="sourcePoint" />
            <mxPoint x="50" y="-20.00000000000003" as="targetPoint" />
          </mxGeometry>
        </mxCell>
        <mxCell id="jYjblTIvRzerhubm99wv-111" value="" style="edgeStyle=elbowEdgeStyle;elbow=horizontal;strokeWidth=2;rounded=0;entryX=1;entryY=0.5;entryDx=0;entryDy=0;exitX=0.5;exitY=1;exitDx=0;exitDy=0;" parent="1" source="jYjblTIvRzerhubm99wv-36" target="jYjblTIvRzerhubm99wv-32" edge="1">
          <mxGeometry x="-23" y="135.5" width="100" height="100" as="geometry">
            <mxPoint x="640" y="360" as="sourcePoint" />
            <mxPoint x="660" y="430" as="targetPoint" />
            <Array as="points">
              <mxPoint x="630" y="400" />
            </Array>
          </mxGeometry>
        </mxCell>
        <mxCell id="jYjblTIvRzerhubm99wv-112" value="Mettre le&#xa;document à jour&#xa;(versionning)" style="rounded=1;fillColor=#23445D;gradientColor=none;strokeColor=none;fontColor=#FFFFFF;fontStyle=1;fontFamily=Tahoma;fontSize=14" parent="1" vertex="1">
          <mxGeometry x="557.5" y="490" width="145" height="70" as="geometry" />
        </mxCell>
        <mxCell id="jYjblTIvRzerhubm99wv-113" value="Le corriger&#xa;(uniquement &#xa;formateur)" style="rounded=1;fillColor=#23445D;gradientColor=none;strokeColor=none;fontColor=#FFFFFF;fontStyle=1;fontFamily=Tahoma;fontSize=14" parent="1" vertex="1">
          <mxGeometry x="290" y="640" width="145" height="70" as="geometry" />
        </mxCell>
        <mxCell id="jYjblTIvRzerhubm99wv-114" value="" style="edgeStyle=elbowEdgeStyle;elbow=horizontal;strokeWidth=2;rounded=0;entryX=1;entryY=0.5;entryDx=0;entryDy=0;" parent="1" target="jYjblTIvRzerhubm99wv-113" edge="1">
          <mxGeometry x="-23" y="135.5" width="100" height="100" as="geometry">
            <mxPoint x="520" y="450" as="sourcePoint" />
            <mxPoint x="490" y="570" as="targetPoint" />
            <Array as="points">
              <mxPoint x="520" y="670" />
            </Array>
          </mxGeometry>
        </mxCell>
        <mxCell id="jYjblTIvRzerhubm99wv-117" value="" style="edgeStyle=elbowEdgeStyle;elbow=horizontal;strokeWidth=2;rounded=0;exitX=0.5;exitY=1;exitDx=0;exitDy=0;entryX=0;entryY=0.5;entryDx=0;entryDy=0;" parent="1" target="jYjblTIvRzerhubm99wv-112" edge="1">
          <mxGeometry x="-23" y="135.5" width="100" height="100" as="geometry">
            <mxPoint x="520" y="450" as="sourcePoint" />
            <mxPoint x="560" y="510" as="targetPoint" />
            <Array as="points">
              <mxPoint x="520" y="510" />
            </Array>
          </mxGeometry>
        </mxCell>
        <mxCell id="jYjblTIvRzerhubm99wv-118" value="" style="edgeStyle=elbowEdgeStyle;elbow=horizontal;strokeWidth=2;rounded=0;entryX=1;entryY=0.5;entryDx=0;entryDy=0;" parent="1" source="jYjblTIvRzerhubm99wv-37" target="jYjblTIvRzerhubm99wv-112" edge="1">
          <mxGeometry x="-23" y="135.5" width="100" height="100" as="geometry">
            <mxPoint x="740" y="450" as="sourcePoint" />
            <mxPoint x="785" y="525" as="targetPoint" />
            <Array as="points">
              <mxPoint x="740" y="510" />
            </Array>
          </mxGeometry>
        </mxCell>
        <mxCell id="jYjblTIvRzerhubm99wv-120" value="Supprimer" style="rounded=1;fillColor=#23445D;gradientColor=none;strokeColor=none;fontColor=#FFFFFF;fontStyle=1;fontFamily=Tahoma;fontSize=14" parent="1" vertex="1">
          <mxGeometry x="557.5" y="590" width="145" height="70" as="geometry" />
        </mxCell>
        <mxCell id="jYjblTIvRzerhubm99wv-121" value="" style="edgeStyle=elbowEdgeStyle;elbow=horizontal;strokeWidth=2;rounded=0;exitX=0.545;exitY=0.98;exitDx=0;exitDy=0;exitPerimeter=0;entryX=1.006;entryY=0.434;entryDx=0;entryDy=0;entryPerimeter=0;" parent="1" source="jYjblTIvRzerhubm99wv-37" target="jYjblTIvRzerhubm99wv-120" edge="1">
          <mxGeometry x="-23" y="135.5" width="100" height="100" as="geometry">
            <mxPoint x="750" y="460" as="sourcePoint" />
            <mxPoint x="713" y="535" as="targetPoint" />
            <Array as="points">
              <mxPoint x="741" y="630" />
            </Array>
          </mxGeometry>
        </mxCell>
        <mxCell id="jYjblTIvRzerhubm99wv-122" value="" style="edgeStyle=elbowEdgeStyle;elbow=horizontal;strokeWidth=2;rounded=0;entryX=0;entryY=0.5;entryDx=0;entryDy=0;" parent="1" target="jYjblTIvRzerhubm99wv-120" edge="1">
          <mxGeometry x="-23" y="135.5" width="100" height="100" as="geometry">
            <mxPoint x="520" y="450" as="sourcePoint" />
            <mxPoint x="568" y="535" as="targetPoint" />
            <Array as="points">
              <mxPoint x="520" y="540" />
            </Array>
          </mxGeometry>
        </mxCell>
        <mxCell id="jYjblTIvRzerhubm99wv-124" value="" style="edgeStyle=elbowEdgeStyle;elbow=vertical;strokeWidth=2;rounded=0;entryX=0.5;entryY=0;entryDx=0;entryDy=0;" parent="1" target="jYjblTIvRzerhubm99wv-126" edge="1">
          <mxGeometry x="-23" y="135.5" width="100" height="100" as="geometry">
            <mxPoint x="180" y="260" as="sourcePoint" />
            <mxPoint x="320" y="310" as="targetPoint" />
            <Array as="points">
              <mxPoint x="180" y="280" />
            </Array>
          </mxGeometry>
        </mxCell>
        <mxCell id="jYjblTIvRzerhubm99wv-125" value="" style="edgeStyle=elbowEdgeStyle;elbow=vertical;strokeWidth=2;rounded=0" parent="1" source="jYjblTIvRzerhubm99wv-23" target="jYjblTIvRzerhubm99wv-25" edge="1">
          <mxGeometry x="-23" y="135.5" width="100" height="100" as="geometry">
            <mxPoint x="190" y="270" as="sourcePoint" />
            <mxPoint x="330" y="320" as="targetPoint" />
            <Array as="points">
              <mxPoint x="180" y="295" />
            </Array>
          </mxGeometry>
        </mxCell>
        <mxCell id="jYjblTIvRzerhubm99wv-126" value="Redirection&#xa;vers la page&#xa;d&#39;accueil" style="rounded=1;fillColor=#23445D;gradientColor=none;strokeColor=none;fontColor=#FFFFFF;fontStyle=1;fontFamily=Tahoma;fontSize=14" parent="1" vertex="1">
          <mxGeometry x="280" y="310" width="130" height="60" as="geometry" />
        </mxCell>
        <mxCell id="kjGv8bo0n3yupOonjuYQ-2" value="Vue étudiant" style="rounded=1;fillColor=#23445D;gradientColor=none;strokeColor=none;fontColor=#FFFFFF;fontStyle=1;fontFamily=Tahoma;fontSize=14" parent="1" vertex="1">
          <mxGeometry x="610" y="-70.00000000000003" width="190" height="80" as="geometry" />
        </mxCell>
        <mxCell id="kjGv8bo0n3yupOonjuYQ-3" value="Vue formateur" style="rounded=1;fillColor=#23445D;gradientColor=none;strokeColor=none;fontColor=#FFFFFF;fontStyle=1;fontFamily=Tahoma;fontSize=14" parent="1" vertex="1">
          <mxGeometry x="880" y="-70.00000000000003" width="190" height="80" as="geometry" />
        </mxCell>
        <mxCell id="kjGv8bo0n3yupOonjuYQ-4" value="" style="endArrow=classic;html=1;rounded=0;entryX=0.5;entryY=0;entryDx=0;entryDy=0;" parent="1" source="jYjblTIvRzerhubm99wv-18" target="kjGv8bo0n3yupOonjuYQ-3" edge="1">
          <mxGeometry width="50" height="50" relative="1" as="geometry">
            <mxPoint x="800" y="-30" as="sourcePoint" />
            <mxPoint x="850" y="-80" as="targetPoint" />
            <Array as="points">
              <mxPoint x="845" y="-100" />
              <mxPoint x="975" y="-100" />
            </Array>
          </mxGeometry>
        </mxCell>
        <mxCell id="kjGv8bo0n3yupOonjuYQ-5" value="" style="endArrow=classic;html=1;rounded=0;" parent="1" source="jYjblTIvRzerhubm99wv-18" target="kjGv8bo0n3yupOonjuYQ-2" edge="1">
          <mxGeometry width="50" height="50" relative="1" as="geometry">
            <mxPoint x="850" y="-130" as="sourcePoint" />
            <mxPoint x="980" y="-70" as="targetPoint" />
            <Array as="points">
              <mxPoint x="840" y="-100" />
              <mxPoint x="710" y="-100" />
            </Array>
          </mxGeometry>
        </mxCell>
      </root>
    </mxGraphModel>
  </diagram>
  <diagram name="Connexion " id="QBUr0UOoYNtG6NrzaH4L">
    <mxGraphModel dx="958" dy="516" grid="1" gridSize="10" guides="1" tooltips="1" connect="1" arrows="1" fold="1" page="1" pageScale="1" pageWidth="850" pageHeight="1100" math="0" shadow="0">
      <root>
        <mxCell id="0" />
        <mxCell id="1" parent="0" />
        <mxCell id="AtzJWQcqK0FpvrLE9QYX-3" value="" style="strokeWidth=1;shadow=0;dashed=0;align=center;html=1;shape=mxgraph.mockup.containers.browserWindow;rSize=0;strokeColor=#666666;strokeColor2=#008cff;strokeColor3=#c4c4c4;mainText=,;recursiveResize=0;" parent="1" vertex="1">
          <mxGeometry x="360" y="188" width="1100" height="725" as="geometry" />
        </mxCell>
        <mxCell id="AtzJWQcqK0FpvrLE9QYX-4" value="Page 1" style="strokeWidth=1;shadow=0;dashed=0;align=center;html=1;shape=mxgraph.mockup.containers.anchor;fontSize=17;fontColor=#666666;align=left;whiteSpace=wrap;" parent="AtzJWQcqK0FpvrLE9QYX-3" vertex="1">
          <mxGeometry x="60" y="12" width="110" height="26" as="geometry" />
        </mxCell>
        <mxCell id="AtzJWQcqK0FpvrLE9QYX-5" value="https://www.draw.io" style="strokeWidth=1;shadow=0;dashed=0;align=center;html=1;shape=mxgraph.mockup.containers.anchor;rSize=0;fontSize=17;fontColor=#666666;align=left;" parent="AtzJWQcqK0FpvrLE9QYX-3" vertex="1">
          <mxGeometry x="130" y="60" width="250" height="26" as="geometry" />
        </mxCell>
        <mxCell id="AtzJWQcqK0FpvrLE9QYX-7" value="" style="rounded=0;whiteSpace=wrap;html=1;" parent="AtzJWQcqK0FpvrLE9QYX-3" vertex="1">
          <mxGeometry y="110" width="1100" height="60" as="geometry" />
        </mxCell>
        <mxCell id="AtzJWQcqK0FpvrLE9QYX-8" value="" style="strokeWidth=1;shadow=0;dashed=0;align=center;html=1;shape=mxgraph.mockup.forms.rrect;rSize=0;strokeColor=#999999;fillColor=#ffffff;" parent="AtzJWQcqK0FpvrLE9QYX-3" vertex="1">
          <mxGeometry x="450" y="280" width="200" height="300" as="geometry" />
        </mxCell>
        <mxCell id="AtzJWQcqK0FpvrLE9QYX-9" value="Connexion" style="strokeWidth=1;shadow=0;dashed=0;align=center;html=1;shape=mxgraph.mockup.forms.anchor;fontSize=12;fontColor=#666666;align=left;resizeWidth=1;spacingLeft=0;" parent="AtzJWQcqK0FpvrLE9QYX-8" vertex="1">
          <mxGeometry width="100" height="20" relative="1" as="geometry">
            <mxPoint x="10" y="10" as="offset" />
          </mxGeometry>
        </mxCell>
        <mxCell id="AtzJWQcqK0FpvrLE9QYX-10" value="" style="shape=line;strokeColor=#ddeeff;strokeWidth=2;html=1;resizeWidth=1;" parent="AtzJWQcqK0FpvrLE9QYX-8" vertex="1">
          <mxGeometry width="180" height="10" relative="1" as="geometry">
            <mxPoint x="10" y="30" as="offset" />
          </mxGeometry>
        </mxCell>
        <mxCell id="AtzJWQcqK0FpvrLE9QYX-11" value="Email :&amp;nbsp;" style="strokeWidth=1;shadow=0;dashed=0;align=center;html=1;shape=mxgraph.mockup.forms.anchor;fontSize=12;fontColor=#666666;align=left;resizeWidth=1;spacingLeft=0;" parent="AtzJWQcqK0FpvrLE9QYX-8" vertex="1">
          <mxGeometry width="100" height="20" relative="1" as="geometry">
            <mxPoint x="10" y="40" as="offset" />
          </mxGeometry>
        </mxCell>
        <mxCell id="AtzJWQcqK0FpvrLE9QYX-12" value="johndoe@example.com" style="strokeWidth=1;shadow=0;dashed=0;align=center;html=1;shape=mxgraph.mockup.forms.rrect;rSize=0;strokeColor=#999999;fontColor=#666666;align=left;spacingLeft=5;resizeWidth=1;" parent="AtzJWQcqK0FpvrLE9QYX-8" vertex="1">
          <mxGeometry width="150" height="25" relative="1" as="geometry">
            <mxPoint x="10" y="60" as="offset" />
          </mxGeometry>
        </mxCell>
        <mxCell id="AtzJWQcqK0FpvrLE9QYX-13" value="Mot de passe" style="strokeWidth=1;shadow=0;dashed=0;align=center;html=1;shape=mxgraph.mockup.forms.anchor;fontSize=12;fontColor=#666666;align=left;resizeWidth=1;spacingLeft=0;" parent="AtzJWQcqK0FpvrLE9QYX-8" vertex="1">
          <mxGeometry width="100" height="20" relative="1" as="geometry">
            <mxPoint x="10" y="95" as="offset" />
          </mxGeometry>
        </mxCell>
        <mxCell id="AtzJWQcqK0FpvrLE9QYX-14" value="********" style="strokeWidth=1;shadow=0;dashed=0;align=center;html=1;shape=mxgraph.mockup.forms.rrect;rSize=0;strokeColor=#999999;fontColor=#666666;align=left;spacingLeft=5;resizeWidth=1;" parent="AtzJWQcqK0FpvrLE9QYX-8" vertex="1">
          <mxGeometry width="150" height="25" relative="1" as="geometry">
            <mxPoint x="10" y="115" as="offset" />
          </mxGeometry>
        </mxCell>
        <mxCell id="AtzJWQcqK0FpvrLE9QYX-15" value="Se connecter" style="strokeWidth=1;shadow=0;dashed=0;align=center;html=1;shape=mxgraph.mockup.forms.rrect;rSize=5;strokeColor=none;fontColor=#ffffff;fillColor=#66bbff;fontSize=16;fontStyle=1;" parent="AtzJWQcqK0FpvrLE9QYX-8" vertex="1">
          <mxGeometry y="1" width="110" height="29" relative="1" as="geometry">
            <mxPoint x="80" y="-50" as="offset" />
          </mxGeometry>
        </mxCell>
        <mxCell id="AtzJWQcqK0FpvrLE9QYX-16" value="Mot de passe oublié ?&amp;nbsp;" style="strokeWidth=1;shadow=0;dashed=0;align=center;html=1;shape=mxgraph.mockup.forms.anchor;fontSize=12;fontColor=#9999ff;align=left;spacingLeft=0;fontStyle=4;resizeWidth=1;" parent="AtzJWQcqK0FpvrLE9QYX-8" vertex="1">
          <mxGeometry y="1" width="150" height="20" relative="1" as="geometry">
            <mxPoint x="10" y="-150" as="offset" />
          </mxGeometry>
        </mxCell>
        <mxCell id="AtzJWQcqK0FpvrLE9QYX-17" value="" style="shape=line;strokeColor=#ddeeff;strokeWidth=2;html=1;resizeWidth=1;" parent="AtzJWQcqK0FpvrLE9QYX-8" vertex="1">
          <mxGeometry y="1" width="180" height="10" relative="1" as="geometry">
            <mxPoint x="10" y="-90" as="offset" />
          </mxGeometry>
        </mxCell>
        <mxCell id="R37OOX2owvJe-5qFh95a-1" value="Se créer un compte" style="strokeWidth=1;shadow=0;dashed=0;align=center;html=1;shape=mxgraph.mockup.forms.anchor;fontSize=12;fontColor=#9999ff;align=left;spacingLeft=0;fontStyle=4;resizeWidth=1;" vertex="1" parent="1">
          <mxGeometry x="820" y="640" width="150" height="20" as="geometry" />
        </mxCell>
      </root>
    </mxGraphModel>
  </diagram>
  <diagram name="Mot de passe oublié" id="PinqDCdOeo6kW_fO0rqy">
    <mxGraphModel dx="958" dy="516" grid="1" gridSize="10" guides="1" tooltips="1" connect="1" arrows="1" fold="1" page="1" pageScale="1" pageWidth="850" pageHeight="1100" math="0" shadow="0">
      <root>
        <mxCell id="35UpOCLf2RG08n02yToH-0" />
        <mxCell id="35UpOCLf2RG08n02yToH-1" parent="35UpOCLf2RG08n02yToH-0" />
        <mxCell id="35UpOCLf2RG08n02yToH-2" value="" style="strokeWidth=1;shadow=0;dashed=0;align=center;html=1;shape=mxgraph.mockup.containers.browserWindow;rSize=0;strokeColor=#666666;strokeColor2=#008cff;strokeColor3=#c4c4c4;mainText=,;recursiveResize=0;" vertex="1" parent="35UpOCLf2RG08n02yToH-1">
          <mxGeometry x="350" y="200" width="1100" height="725" as="geometry" />
        </mxCell>
        <mxCell id="35UpOCLf2RG08n02yToH-3" value="Page 1" style="strokeWidth=1;shadow=0;dashed=0;align=center;html=1;shape=mxgraph.mockup.containers.anchor;fontSize=17;fontColor=#666666;align=left;whiteSpace=wrap;" vertex="1" parent="35UpOCLf2RG08n02yToH-2">
          <mxGeometry x="60" y="12" width="110" height="26" as="geometry" />
        </mxCell>
        <mxCell id="35UpOCLf2RG08n02yToH-4" value="https://www.draw.io" style="strokeWidth=1;shadow=0;dashed=0;align=center;html=1;shape=mxgraph.mockup.containers.anchor;rSize=0;fontSize=17;fontColor=#666666;align=left;" vertex="1" parent="35UpOCLf2RG08n02yToH-2">
          <mxGeometry x="130" y="60" width="250" height="26" as="geometry" />
        </mxCell>
        <mxCell id="35UpOCLf2RG08n02yToH-5" value="" style="rounded=0;whiteSpace=wrap;html=1;" vertex="1" parent="35UpOCLf2RG08n02yToH-2">
          <mxGeometry y="110" width="1100" height="60" as="geometry" />
        </mxCell>
        <mxCell id="35UpOCLf2RG08n02yToH-6" value="" style="strokeWidth=1;shadow=0;dashed=0;align=center;html=1;shape=mxgraph.mockup.forms.rrect;rSize=0;strokeColor=#999999;fillColor=#ffffff;" vertex="1" parent="35UpOCLf2RG08n02yToH-2">
          <mxGeometry x="440" y="280" width="210" height="300" as="geometry" />
        </mxCell>
        <mxCell id="35UpOCLf2RG08n02yToH-7" value="Mot de passe oublié" style="strokeWidth=1;shadow=0;dashed=0;align=center;html=1;shape=mxgraph.mockup.forms.anchor;fontSize=12;fontColor=#666666;align=left;resizeWidth=1;spacingLeft=0;" vertex="1" parent="35UpOCLf2RG08n02yToH-6">
          <mxGeometry width="105" height="20" relative="1" as="geometry">
            <mxPoint x="10" y="10" as="offset" />
          </mxGeometry>
        </mxCell>
        <mxCell id="35UpOCLf2RG08n02yToH-8" value="" style="shape=line;strokeColor=#ddeeff;strokeWidth=2;html=1;resizeWidth=1;" vertex="1" parent="35UpOCLf2RG08n02yToH-6">
          <mxGeometry width="189" height="10" relative="1" as="geometry">
            <mxPoint x="10" y="30" as="offset" />
          </mxGeometry>
        </mxCell>
        <mxCell id="35UpOCLf2RG08n02yToH-9" value="Email :&amp;nbsp;" style="strokeWidth=1;shadow=0;dashed=0;align=center;html=1;shape=mxgraph.mockup.forms.anchor;fontSize=12;fontColor=#666666;align=left;resizeWidth=1;spacingLeft=0;" vertex="1" parent="35UpOCLf2RG08n02yToH-6">
          <mxGeometry width="105" height="20" relative="1" as="geometry">
            <mxPoint x="10" y="40" as="offset" />
          </mxGeometry>
        </mxCell>
        <mxCell id="35UpOCLf2RG08n02yToH-10" value="johndoe@example.com" style="strokeWidth=1;shadow=0;dashed=0;align=center;html=1;shape=mxgraph.mockup.forms.rrect;rSize=0;strokeColor=#999999;fontColor=#666666;align=left;spacingLeft=5;resizeWidth=1;" vertex="1" parent="35UpOCLf2RG08n02yToH-6">
          <mxGeometry width="157.5" height="25" relative="1" as="geometry">
            <mxPoint x="10" y="60" as="offset" />
          </mxGeometry>
        </mxCell>
        <mxCell id="35UpOCLf2RG08n02yToH-11" value="" style="strokeWidth=1;shadow=0;dashed=0;align=center;html=1;shape=mxgraph.mockup.forms.anchor;fontSize=12;fontColor=#666666;align=left;resizeWidth=1;spacingLeft=0;" vertex="1" parent="35UpOCLf2RG08n02yToH-6">
          <mxGeometry width="105" height="20" relative="1" as="geometry">
            <mxPoint x="10" y="95" as="offset" />
          </mxGeometry>
        </mxCell>
        <mxCell id="35UpOCLf2RG08n02yToH-14" value="" style="strokeWidth=1;shadow=0;dashed=0;align=center;html=1;shape=mxgraph.mockup.forms.anchor;fontSize=12;fontColor=#9999ff;align=left;spacingLeft=0;fontStyle=4;resizeWidth=1;" vertex="1" parent="35UpOCLf2RG08n02yToH-6">
          <mxGeometry y="1" width="157.5" height="20" relative="1" as="geometry">
            <mxPoint x="10" y="-150" as="offset" />
          </mxGeometry>
        </mxCell>
        <mxCell id="35UpOCLf2RG08n02yToH-15" value="" style="shape=line;strokeColor=#ddeeff;strokeWidth=2;html=1;resizeWidth=1;" vertex="1" parent="35UpOCLf2RG08n02yToH-6">
          <mxGeometry y="1" width="189" height="10" relative="1" as="geometry">
            <mxPoint x="11" y="-80" as="offset" />
          </mxGeometry>
        </mxCell>
        <mxCell id="-wDmeaq0r97TTXBzhg1i-1" value="Envoyer mon nouveau&lt;div&gt;mot de passe&lt;/div&gt;" style="strokeWidth=1;shadow=0;dashed=0;align=center;html=1;shape=mxgraph.mockup.forms.rrect;rSize=5;strokeColor=none;fontColor=#ffffff;fillColor=#66bbff;fontSize=16;fontStyle=1;" vertex="1" parent="35UpOCLf2RG08n02yToH-6">
          <mxGeometry x="6.3100000000000005" y="240" width="197.38" height="50" as="geometry" />
        </mxCell>
        <mxCell id="35UpOCLf2RG08n02yToH-16" value="Se connecter" style="strokeWidth=1;shadow=0;dashed=0;align=center;html=1;shape=mxgraph.mockup.buttons.button;strokeColor=#666666;fontColor=#ffffff;mainText=;buttonStyle=round;fontSize=17;fontStyle=1;fillColor=#008cff;whiteSpace=wrap;" vertex="1" parent="35UpOCLf2RG08n02yToH-2">
          <mxGeometry x="940" y="115" width="150" height="50" as="geometry" />
        </mxCell>
      </root>
    </mxGraphModel>
  </diagram>
  <diagram name="Inscription" id="dOtcY-UAxUzvSdmiFnBd">
    <mxGraphModel dx="1071" dy="576" grid="1" gridSize="10" guides="1" tooltips="1" connect="1" arrows="1" fold="1" page="1" pageScale="1" pageWidth="850" pageHeight="1100" math="0" shadow="0">
      <root>
        <mxCell id="-ZaEutG7XlJEXtpdpw_r-0" />
        <mxCell id="-ZaEutG7XlJEXtpdpw_r-1" parent="-ZaEutG7XlJEXtpdpw_r-0" />
        <mxCell id="-xWRWz2y5w7LKz7eoP3i-0" value="" style="strokeWidth=1;shadow=0;dashed=0;align=center;html=1;shape=mxgraph.mockup.containers.browserWindow;rSize=0;strokeColor=#666666;strokeColor2=#008cff;strokeColor3=#c4c4c4;mainText=,;recursiveResize=0;" vertex="1" parent="-ZaEutG7XlJEXtpdpw_r-1">
          <mxGeometry x="320" y="150" width="1100" height="725" as="geometry" />
        </mxCell>
        <mxCell id="-xWRWz2y5w7LKz7eoP3i-1" value="Page 1" style="strokeWidth=1;shadow=0;dashed=0;align=center;html=1;shape=mxgraph.mockup.containers.anchor;fontSize=17;fontColor=#666666;align=left;whiteSpace=wrap;" vertex="1" parent="-xWRWz2y5w7LKz7eoP3i-0">
          <mxGeometry x="60" y="12" width="110" height="26" as="geometry" />
        </mxCell>
        <mxCell id="-xWRWz2y5w7LKz7eoP3i-2" value="https://www.draw.io" style="strokeWidth=1;shadow=0;dashed=0;align=center;html=1;shape=mxgraph.mockup.containers.anchor;rSize=0;fontSize=17;fontColor=#666666;align=left;" vertex="1" parent="-xWRWz2y5w7LKz7eoP3i-0">
          <mxGeometry x="130" y="60" width="250" height="26" as="geometry" />
        </mxCell>
        <mxCell id="-xWRWz2y5w7LKz7eoP3i-3" value="" style="rounded=0;whiteSpace=wrap;html=1;" vertex="1" parent="-xWRWz2y5w7LKz7eoP3i-0">
          <mxGeometry y="110" width="1100" height="60" as="geometry" />
        </mxCell>
        <mxCell id="-xWRWz2y5w7LKz7eoP3i-4" value="" style="strokeWidth=1;shadow=0;dashed=0;align=center;html=1;shape=mxgraph.mockup.forms.rrect;rSize=0;strokeColor=#999999;fillColor=#ffffff;" vertex="1" parent="-xWRWz2y5w7LKz7eoP3i-0">
          <mxGeometry x="313.75" y="240" width="472.5" height="397.5" as="geometry" />
        </mxCell>
        <mxCell id="-xWRWz2y5w7LKz7eoP3i-5" value="S&#39;inscrire" style="strokeWidth=1;shadow=0;dashed=0;align=center;html=1;shape=mxgraph.mockup.forms.anchor;fontSize=12;fontColor=#666666;align=left;resizeWidth=1;spacingLeft=0;" vertex="1" parent="-xWRWz2y5w7LKz7eoP3i-4">
          <mxGeometry width="225" height="20" relative="1" as="geometry">
            <mxPoint x="10" y="10" as="offset" />
          </mxGeometry>
        </mxCell>
        <mxCell id="-xWRWz2y5w7LKz7eoP3i-6" value="" style="shape=line;strokeColor=#ddeeff;strokeWidth=2;html=1;resizeWidth=1;" vertex="1" parent="-xWRWz2y5w7LKz7eoP3i-4">
          <mxGeometry width="405" height="10" relative="1" as="geometry">
            <mxPoint x="10" y="30" as="offset" />
          </mxGeometry>
        </mxCell>
        <mxCell id="-xWRWz2y5w7LKz7eoP3i-7" value="Nom" style="strokeWidth=1;shadow=0;dashed=0;align=center;html=1;shape=mxgraph.mockup.forms.anchor;fontSize=12;fontColor=#666666;align=left;resizeWidth=1;spacingLeft=0;" vertex="1" parent="-xWRWz2y5w7LKz7eoP3i-4">
          <mxGeometry width="225" height="20" relative="1" as="geometry">
            <mxPoint x="10" y="40" as="offset" />
          </mxGeometry>
        </mxCell>
        <mxCell id="-xWRWz2y5w7LKz7eoP3i-8" value="doe" style="strokeWidth=1;shadow=0;dashed=0;align=center;html=1;shape=mxgraph.mockup.forms.rrect;rSize=0;strokeColor=#999999;fontColor=#666666;align=left;spacingLeft=5;resizeWidth=1;" vertex="1" parent="-xWRWz2y5w7LKz7eoP3i-4">
          <mxGeometry width="160" height="25" relative="1" as="geometry">
            <mxPoint x="10" y="60" as="offset" />
          </mxGeometry>
        </mxCell>
        <mxCell id="-xWRWz2y5w7LKz7eoP3i-11" value="" style="shape=line;strokeColor=#ddeeff;strokeWidth=2;html=1;resizeWidth=1;" vertex="1" parent="-xWRWz2y5w7LKz7eoP3i-4">
          <mxGeometry y="1" width="405" height="10" relative="1" as="geometry">
            <mxPoint x="10" y="-90" as="offset" />
          </mxGeometry>
        </mxCell>
        <mxCell id="-xWRWz2y5w7LKz7eoP3i-12" value="Générer et envoyer&amp;nbsp;&lt;div&gt;mon&amp;nbsp;&lt;span style=&quot;background-color: initial;&quot;&gt;mot de passe&lt;/span&gt;&lt;/div&gt;" style="strokeWidth=1;shadow=0;dashed=0;align=center;html=1;shape=mxgraph.mockup.forms.rrect;rSize=5;strokeColor=none;fontColor=#ffffff;fillColor=#66bbff;fontSize=16;fontStyle=1;" vertex="1" parent="-xWRWz2y5w7LKz7eoP3i-4">
          <mxGeometry y="1" width="180" height="52" relative="1" as="geometry">
            <mxPoint x="276" y="-72" as="offset" />
          </mxGeometry>
        </mxCell>
        <mxCell id="-xWRWz2y5w7LKz7eoP3i-13" value="Email:" style="strokeWidth=1;shadow=0;dashed=0;align=center;html=1;shape=mxgraph.mockup.forms.anchor;fontSize=12;fontColor=#666666;align=left;resizeWidth=1;spacingLeft=0;" vertex="1" parent="-xWRWz2y5w7LKz7eoP3i-4">
          <mxGeometry x="11.25" y="100" width="225" height="20" as="geometry" />
        </mxCell>
        <mxCell id="-xWRWz2y5w7LKz7eoP3i-14" value="********" style="strokeWidth=1;shadow=0;dashed=0;align=center;html=1;shape=mxgraph.mockup.forms.rrect;rSize=0;strokeColor=#999999;fontColor=#666666;align=left;spacingLeft=5;resizeWidth=1;" vertex="1" parent="-xWRWz2y5w7LKz7eoP3i-4">
          <mxGeometry x="11.25" y="120" width="160" height="25" as="geometry" />
        </mxCell>
        <mxCell id="-xWRWz2y5w7LKz7eoP3i-17" value="Email confirmation" style="strokeWidth=1;shadow=0;dashed=0;align=center;html=1;shape=mxgraph.mockup.forms.anchor;fontSize=12;fontColor=#666666;align=left;resizeWidth=1;spacingLeft=0;" vertex="1" parent="-xWRWz2y5w7LKz7eoP3i-4">
          <mxGeometry x="197.5" y="100" width="225" height="20" as="geometry" />
        </mxCell>
        <mxCell id="-xWRWz2y5w7LKz7eoP3i-18" value="********" style="strokeWidth=1;shadow=0;dashed=0;align=center;html=1;shape=mxgraph.mockup.forms.rrect;rSize=0;strokeColor=#999999;fontColor=#666666;align=left;spacingLeft=5;resizeWidth=1;" vertex="1" parent="-xWRWz2y5w7LKz7eoP3i-4">
          <mxGeometry x="197.5" y="120" width="165" height="25" as="geometry" />
        </mxCell>
        <mxCell id="-xWRWz2y5w7LKz7eoP3i-27" value="john" style="strokeWidth=1;shadow=0;dashed=0;align=center;html=1;shape=mxgraph.mockup.forms.rrect;rSize=0;strokeColor=#999999;fontColor=#666666;align=left;spacingLeft=5;resizeWidth=1;" vertex="1" parent="-xWRWz2y5w7LKz7eoP3i-4">
          <mxGeometry x="197.5" y="60" width="160" height="25" as="geometry" />
        </mxCell>
        <mxCell id="-xWRWz2y5w7LKz7eoP3i-23" value="Prénom" style="strokeWidth=1;shadow=0;dashed=0;align=center;html=1;shape=mxgraph.mockup.forms.anchor;fontSize=12;fontColor=#666666;align=left;resizeWidth=1;spacingLeft=0;" vertex="1" parent="-xWRWz2y5w7LKz7eoP3i-4">
          <mxGeometry x="197.5" y="40" width="225" height="20" as="geometry" />
        </mxCell>
        <mxCell id="1a9u25S9KrGdNXcazrTw-18" value="Classe / Groupe" style="strokeWidth=1;shadow=0;dashed=0;align=center;html=1;shape=mxgraph.mockup.forms.anchor;fontSize=12;fontColor=#666666;align=left;resizeWidth=1;spacingLeft=0;" vertex="1" parent="-xWRWz2y5w7LKz7eoP3i-4">
          <mxGeometry x="11.25" y="160" width="225" height="20" as="geometry" />
        </mxCell>
        <mxCell id="1a9u25S9KrGdNXcazrTw-19" value="" style="strokeWidth=1;shadow=0;dashed=0;align=center;html=1;shape=mxgraph.mockup.forms.rrect;rSize=0;strokeColor=#999999;fontColor=#666666;align=left;spacingLeft=5;resizeWidth=1;" vertex="1" parent="-xWRWz2y5w7LKz7eoP3i-4">
          <mxGeometry x="11.25" y="180" width="165" height="25" as="geometry" />
        </mxCell>
        <mxCell id="-xWRWz2y5w7LKz7eoP3i-19" value="Se connecter" style="strokeWidth=1;shadow=0;dashed=0;align=center;html=1;shape=mxgraph.mockup.buttons.button;strokeColor=#666666;fontColor=#ffffff;mainText=;buttonStyle=round;fontSize=17;fontStyle=1;fillColor=#008cff;whiteSpace=wrap;" vertex="1" parent="-xWRWz2y5w7LKz7eoP3i-0">
          <mxGeometry x="940" y="115" width="150" height="50" as="geometry" />
        </mxCell>
      </root>
    </mxGraphModel>
  </diagram>
  <diagram id="ZEtUdVky22PZlKUTTTCk" name="Accueil">
    <mxGraphModel dx="1517" dy="817" grid="1" gridSize="10" guides="1" tooltips="1" connect="1" arrows="1" fold="1" page="1" pageScale="1" pageWidth="850" pageHeight="1100" math="0" shadow="0">
      <root>
        <mxCell id="0" />
        <mxCell id="1" parent="0" />
        <mxCell id="xff2OMqlBcaKpqB0bd1u-1" value="" style="strokeWidth=1;shadow=0;dashed=0;align=center;html=1;shape=mxgraph.mockup.containers.browserWindow;rSize=0;strokeColor=#666666;strokeColor2=#008cff;strokeColor3=#c4c4c4;mainText=,;recursiveResize=0;" parent="1" vertex="1">
          <mxGeometry x="300" y="170" width="1100" height="725" as="geometry" />
        </mxCell>
        <mxCell id="xff2OMqlBcaKpqB0bd1u-2" value="Page 1" style="strokeWidth=1;shadow=0;dashed=0;align=center;html=1;shape=mxgraph.mockup.containers.anchor;fontSize=17;fontColor=#666666;align=left;whiteSpace=wrap;" parent="xff2OMqlBcaKpqB0bd1u-1" vertex="1">
          <mxGeometry x="60" y="12" width="110" height="26" as="geometry" />
        </mxCell>
        <mxCell id="xff2OMqlBcaKpqB0bd1u-3" value="https://www.draw.io" style="strokeWidth=1;shadow=0;dashed=0;align=center;html=1;shape=mxgraph.mockup.containers.anchor;rSize=0;fontSize=17;fontColor=#666666;align=left;" parent="xff2OMqlBcaKpqB0bd1u-1" vertex="1">
          <mxGeometry x="130" y="60" width="250" height="26" as="geometry" />
        </mxCell>
        <mxCell id="xff2OMqlBcaKpqB0bd1u-4" value="" style="rounded=0;whiteSpace=wrap;html=1;" parent="xff2OMqlBcaKpqB0bd1u-1" vertex="1">
          <mxGeometry y="110" width="1100" height="60" as="geometry" />
        </mxCell>
        <mxCell id="8ljOL6C_YMWlEduj9QZ2-1" value="Déconnexion" style="strokeWidth=1;shadow=0;dashed=0;align=center;html=1;shape=mxgraph.mockup.buttons.button;strokeColor=#666666;fontColor=#ffffff;mainText=;buttonStyle=round;fontSize=17;fontStyle=1;fillColor=#008cff;whiteSpace=wrap;" vertex="1" parent="xff2OMqlBcaKpqB0bd1u-1">
          <mxGeometry x="940" y="115" width="150" height="50" as="geometry" />
        </mxCell>
        <mxCell id="HwMCkrl8LpM0ir7Ft3Yz-1" value="&lt;font style=&quot;font-size: 40px;&quot;&gt;Hello World&lt;/font&gt;" style="strokeWidth=1;shadow=0;dashed=0;align=center;html=1;shape=mxgraph.mockup.forms.anchor;fontSize=12;fontColor=#666666;align=left;resizeWidth=1;spacingLeft=0;" vertex="1" parent="xff2OMqlBcaKpqB0bd1u-1">
          <mxGeometry x="437.5" y="330" width="225" height="20" as="geometry" />
        </mxCell>
      </root>
    </mxGraphModel>
  </diagram>
  <diagram id="64IU6O4E56dK2lGZ9t4s" name="Liste de document">
    <mxGraphModel dx="1400" dy="743" grid="1" gridSize="10" guides="1" tooltips="1" connect="1" arrows="1" fold="1" page="1" pageScale="1" pageWidth="850" pageHeight="1100" math="0" shadow="0">
      <root>
        <mxCell id="0" />
        <mxCell id="1" parent="0" />
        <mxCell id="GGmFy2L8yLCCfb8R6RXf-1" value="" style="strokeWidth=1;shadow=0;dashed=0;align=center;html=1;shape=mxgraph.mockup.containers.browserWindow;rSize=0;strokeColor=#666666;strokeColor2=#008cff;strokeColor3=#c4c4c4;mainText=,;recursiveResize=0;" vertex="1" parent="1">
          <mxGeometry x="70" y="510" width="1080" height="710" as="geometry" />
        </mxCell>
        <mxCell id="GGmFy2L8yLCCfb8R6RXf-2" value="Page 1" style="strokeWidth=1;shadow=0;dashed=0;align=center;html=1;shape=mxgraph.mockup.containers.anchor;fontSize=17;fontColor=#666666;align=left;whiteSpace=wrap;" vertex="1" parent="GGmFy2L8yLCCfb8R6RXf-1">
          <mxGeometry x="60" y="12" width="110" height="26" as="geometry" />
        </mxCell>
        <mxCell id="GGmFy2L8yLCCfb8R6RXf-3" value="https://www.draw.io" style="strokeWidth=1;shadow=0;dashed=0;align=center;html=1;shape=mxgraph.mockup.containers.anchor;rSize=0;fontSize=17;fontColor=#666666;align=left;" vertex="1" parent="GGmFy2L8yLCCfb8R6RXf-1">
          <mxGeometry x="130" y="60" width="250" height="26" as="geometry" />
        </mxCell>
        <mxCell id="GGmFy2L8yLCCfb8R6RXf-13" value="" style="strokeWidth=1;shadow=0;dashed=0;align=center;html=1;shape=mxgraph.mockup.rrect;rSize=10;strokeColor=#666666;" vertex="1" parent="GGmFy2L8yLCCfb8R6RXf-1">
          <mxGeometry x="50" y="160" width="120" height="200" as="geometry" />
        </mxCell>
        <mxCell id="GGmFy2L8yLCCfb8R6RXf-14" value="Matière 2" style="strokeColor=inherit;fillColor=inherit;gradientColor=inherit;strokeWidth=1;shadow=0;dashed=0;align=center;html=1;shape=mxgraph.mockup.rrect;rSize=0;fontSize=17;fontColor=#666666;fontStyle=1;resizeWidth=1;whiteSpace=wrap;" vertex="1" parent="GGmFy2L8yLCCfb8R6RXf-13">
          <mxGeometry width="120" height="50" relative="1" as="geometry">
            <mxPoint y="50" as="offset" />
          </mxGeometry>
        </mxCell>
        <mxCell id="GGmFy2L8yLCCfb8R6RXf-15" value="Matière 3" style="strokeColor=inherit;fillColor=inherit;gradientColor=inherit;strokeWidth=1;shadow=0;dashed=0;align=center;html=1;shape=mxgraph.mockup.rrect;rSize=0;fontSize=17;fontColor=#666666;fontStyle=1;resizeWidth=1;whiteSpace=wrap;" vertex="1" parent="GGmFy2L8yLCCfb8R6RXf-13">
          <mxGeometry width="120" height="50" relative="1" as="geometry">
            <mxPoint y="100" as="offset" />
          </mxGeometry>
        </mxCell>
        <mxCell id="GGmFy2L8yLCCfb8R6RXf-16" value="Matière 4" style="strokeColor=inherit;fillColor=inherit;gradientColor=inherit;strokeWidth=1;shadow=0;dashed=0;align=center;html=1;shape=mxgraph.mockup.bottomButton;rSize=10;fontSize=17;fontColor=#666666;fontStyle=1;resizeWidth=1;whiteSpace=wrap;" vertex="1" parent="GGmFy2L8yLCCfb8R6RXf-13">
          <mxGeometry y="1" width="120" height="50" relative="1" as="geometry">
            <mxPoint y="-50" as="offset" />
          </mxGeometry>
        </mxCell>
        <mxCell id="GGmFy2L8yLCCfb8R6RXf-17" value="Matière 1" style="strokeWidth=1;shadow=0;dashed=0;align=center;html=1;shape=mxgraph.mockup.topButton;rSize=10;fontSize=17;fontColor=#ffffff;fontStyle=1;fillColor=#008cff;strokeColor=#008cff;resizeWidth=1;whiteSpace=wrap;" vertex="1" parent="GGmFy2L8yLCCfb8R6RXf-13">
          <mxGeometry width="120" height="50" relative="1" as="geometry" />
        </mxCell>
        <mxCell id="GGmFy2L8yLCCfb8R6RXf-23" value="Search" style="strokeWidth=1;shadow=0;dashed=0;align=center;html=1;shape=mxgraph.mockup.forms.searchBox;strokeColor=#999999;mainText=;strokeColor2=#008cff;fontColor=#666666;fontSize=17;align=left;spacingLeft=3;whiteSpace=wrap;" vertex="1" parent="GGmFy2L8yLCCfb8R6RXf-1">
          <mxGeometry x="240" y="140" width="700" height="30" as="geometry" />
        </mxCell>
        <mxCell id="GGmFy2L8yLCCfb8R6RXf-24" value="" style="strokeWidth=1;shadow=0;dashed=0;align=center;html=1;shape=mxgraph.mockup.containers.marginRect2;rectMarginLeft=67;strokeColor=#666666;gradientColor=none;whiteSpace=wrap;" vertex="1" parent="GGmFy2L8yLCCfb8R6RXf-1">
          <mxGeometry x="200" y="210" width="710" height="450" as="geometry" />
        </mxCell>
        <mxCell id="GGmFy2L8yLCCfb8R6RXf-25" value="Tab 1" style="strokeColor=inherit;fillColor=inherit;gradientColor=inherit;strokeWidth=1;shadow=0;dashed=0;align=center;html=1;shape=mxgraph.mockup.containers.rrect;rSize=0;fontSize=17;fontColor=#666666;" vertex="1" parent="GGmFy2L8yLCCfb8R6RXf-24">
          <mxGeometry width="60" height="25" relative="1" as="geometry">
            <mxPoint y="10" as="offset" />
          </mxGeometry>
        </mxCell>
        <mxCell id="GGmFy2L8yLCCfb8R6RXf-26" value="Tab 2" style="strokeWidth=1;shadow=0;dashed=0;align=center;html=1;shape=mxgraph.mockup.containers.rrect;rSize=0;fontSize=17;fontColor=#ffffff;strokeColor=#008cff;fillColor=#008cff;" vertex="1" parent="GGmFy2L8yLCCfb8R6RXf-24">
          <mxGeometry width="60" height="25" relative="1" as="geometry">
            <mxPoint y="40" as="offset" />
          </mxGeometry>
        </mxCell>
        <mxCell id="GGmFy2L8yLCCfb8R6RXf-27" value="Tab 3" style="strokeColor=inherit;fillColor=inherit;gradientColor=inherit;strokeWidth=1;shadow=0;dashed=0;align=center;html=1;shape=mxgraph.mockup.containers.rrect;rSize=0;fontSize=17;fontColor=#666666;" vertex="1" parent="GGmFy2L8yLCCfb8R6RXf-24">
          <mxGeometry width="60" height="25" relative="1" as="geometry">
            <mxPoint y="70" as="offset" />
          </mxGeometry>
        </mxCell>
        <mxCell id="GGmFy2L8yLCCfb8R6RXf-28" value="" style="strokeWidth=1;shadow=0;dashed=0;align=center;html=1;shape=mxgraph.mockup.containers.leftButton;rSize=5;strokeColor=#008cff;fillColor=#008cff;resizeHeight=1;movable=0;deletable=0;" vertex="1" parent="GGmFy2L8yLCCfb8R6RXf-24">
          <mxGeometry width="7" height="450" relative="1" as="geometry">
            <mxPoint x="60" as="offset" />
          </mxGeometry>
        </mxCell>
      </root>
    </mxGraphModel>
  </diagram>
</mxfile>
